<?xml version="1.0" encoding="UTF-8"?>
<svg id="Capa_1" data-name="Capa 1" xmlns="http://www.w3.org/2000/svg" viewBox="0 0 1000 335.27">
  <defs>
    <style>
      .cls-1 {
        fill: #7fd344;
      }
    </style>
  </defs>
  <path class="cls-1" d="M313.15,207.59c-3.01,0-4.11-1.35-3.28-3.82l65.68-154.31c.82-1.8,2.19-2.7,4.38-2.7h31.2c2.19,0,3.56.9,4.38,2.7l65.68,154.31c.82,2.47-.55,3.82-3.28,3.82h-26.82c-2.19,0-4.11-.9-4.65-2.7l-13.41-33.97h-74.98l-13.41,33.97c-.82,1.8-2.46,2.7-4.65,2.7h-26.82ZM367.34,146.41h56.37l-27.64-69.96h-1.09l-27.64,69.96Z"/>
  <path class="cls-1" d="M574,46.76c43.24,0,68.69,20.69,68.69,54.89s-25.45,55.11-68.69,55.11h-40.23v47.46c0,2.25-1.37,3.37-3.83,3.37h-25.18c-2.46,0-3.83-1.12-3.83-3.37V50.14c0-2.25,1.37-3.37,3.83-3.37h69.24ZM570.17,131.57c26.55,0,38.86-9.45,38.86-29.92s-12.31-29.69-38.86-29.69h-36.4v59.61h36.4Z"/>
  <path class="cls-1" d="M771.91,207.6c-1.92,0-3.56-.67-4.65-2.25l-47.89-56.46h-24.36v55.33c0,2.25-1.37,3.37-3.83,3.37h-25.18c-2.46,0-3.83-1.12-3.83-3.37V50.14c0-2.25,1.37-3.37,3.83-3.37h63.49c44.88,0,71.15,19.12,71.15,51.29,0,24.74-16.69,41.61-45.43,47.91l50.08,57.58c1.92,2.47.55,4.05-2.46,4.05h-30.92ZM695.01,71.73v52.86h34.48c25.45,0,37.49-8.32,37.49-26.32s-12.04-26.54-37.49-26.54h-34.48Z"/>
  <path class="cls-1" d="M893.21,207.6c-46.95,0-74.54-22.46-74.54-60.62v-40.12c0-38.16,27.59-60.4,74.54-60.4s74.54,22.24,74.54,60.4v40.12c0,38.16-27.59,60.62-74.54,60.62M893.21,182.74c27.59,0,41.91-12.43,41.91-35.76v-39.9c0-23.55-14.32-35.98-41.91-35.98s-41.91,12.43-41.91,35.98v39.9c0,23.33,14.33,35.76,41.91,35.76"/>
  <path class="cls-1" d="M190.63,50.83l-63.61,151.35c-1.3,3.14.44,5.16,3.97,5.16h1.11l27.25.04h1.56c2.77,0,4.71-1.15,5.85-3.81L231.1,52.18c.22-.53.35-1.03.4-1.5l.03-.07s0-.02-.01-.03c.19-2.21-1.5-3.56-4.38-3.56h-30.66c-2.77,0-5.05,1.12-5.84,3.81"/>
  <path class="cls-1" d="M109.4,50.83l-63.61,151.35c-1.3,3.14.44,5.16,3.97,5.16h1.11l27.25.04h1.56c2.77,0,4.7-1.15,5.84-3.81L149.87,52.18c.22-.53.35-1.03.4-1.5l.03-.07s0-.02-.01-.03c.19-2.21-1.49-3.56-4.38-3.56h-30.66c-2.77,0-5.06,1.12-5.85,3.81"/>
  <path class="cls-1" d="M68.22,50.68l.03-.07s0-.02-.01-.03c.19-2.21-1.49-3.56-4.38-3.56h-27.42c-2.86,0-5.17,2.32-5.17,5.17v85.99l36.56-86c.22-.53.35-1.03.4-1.5"/>
  <path class="cls-1" d="M272.59,50.83l-63.61,151.35c-1.3,3.14.44,5.16,3.97,5.16h1.11l27.25.04h1.56c2.77,0,4.71-1.15,5.85-3.81l64.35-151.39c.22-.53.35-1.03.4-1.5l.03-.07s0-.02-.01-.03c.19-2.21-1.5-3.56-4.38-3.56h-30.66c-2.77,0-5.05,1.12-5.84,3.81"/>
  <g>
    <path class="cls-1" d="M55.61,290.89h-23.62c-.49,0-.73-.22-.73-.67v-42.19c0-.45.24-.67.73-.67h3.84c.45,0,.67.22.67.67v38.11h19.11c.45,0,.67.22.67.67v3.41c0,.45-.22.67-.67.67Z"/>
    <path class="cls-1" d="M73.63,234.58l-7.37,8.1c-.24.28-.53.43-.85.43h-3.17c-.65,0-.79-.28-.43-.85l6.39-8.1c.16-.28.43-.43.79-.43h4.26c.28,0,.47.09.55.27.08.18.02.38-.18.58ZM67.54,248.03v42.19c0,.45-.22.67-.67.67h-3.77c-.49,0-.73-.22-.73-.67v-42.19c0-.45.24-.67.73-.67h3.77c.45,0,.67.22.67.67Z"/>
    <path class="cls-1" d="M94.02,290.89h-14.85c-.49,0-.73-.22-.73-.67v-42.19c0-.45.24-.67.73-.67h14.85c4.95,0,8.83,1.37,11.63,4.11,2.8,2.74,4.2,6.59,4.2,11.54v12.48c0,4.91-1.4,8.71-4.2,11.38-2.8,2.68-6.68,4.02-11.63,4.02ZM83.67,252.11v33.91h10.29c3.41,0,6.02-.88,7.82-2.65,1.81-1.77,2.71-4.39,2.71-7.88v-12.48c0-3.57-.9-6.28-2.71-8.13-1.81-1.85-4.41-2.77-7.82-2.77h-10.29Z"/>
    <path class="cls-1" d="M124.46,271.16v14.98h20.94c.45,0,.67.22.67.67v3.41c0,.45-.22.67-.67.67h-25.45c-.49,0-.73-.22-.73-.67v-42.19c0-.45.24-.67.73-.67h24.59c.45,0,.67.22.67.67v3.41c0,.45-.22.67-.67.67h-20.09v14.24h18.69c.45,0,.67.24.67.73v3.35c0,.49-.22.73-.67.73h-18.69Z"/>
    <path class="cls-1" d="M184.72,290.89h-4.75c-.41,0-.69-.14-.85-.43l-12.11-16.56h-7.37v16.31c0,.45-.22.67-.67.67h-3.77c-.49,0-.73-.22-.73-.67v-42.19c0-.45.24-.67.73-.67h13.7c4.79,0,8.54,1.18,11.26,3.53,2.72,2.35,4.08,5.62,4.08,9.8,0,3.45-1,6.29-3.01,8.52-2.01,2.23-4.82,3.65-8.43,4.26l12.36,16.56c.16.24.2.45.12.61-.08.16-.26.24-.55.24ZM168.96,252.11h-9.31v17.11h9.31c6.66,0,9.98-2.84,9.98-8.52s-3.33-8.58-9.98-8.58Z"/>
    <path class="cls-1" d="M211.81,271.16v14.98h20.94c.45,0,.67.22.67.67v3.41c0,.45-.22.67-.67.67h-25.45c-.49,0-.73-.22-.73-.67v-42.19c0-.45.24-.67.73-.67h24.59c.45,0,.67.22.67.67v3.41c0,.45-.22.67-.67.67h-20.09v14.24h18.69c.45,0,.67.24.67.73v3.35c0,.49-.22.73-.67.73h-18.69Z"/>
    <path class="cls-1" d="M246.27,290.89h-3.71c-.49,0-.73-.22-.73-.67v-42.19c0-.45.24-.67.73-.67h4.26c.37,0,.65.16.85.49l16.13,26.3c2.76,4.67,4.46,7.63,5.11,8.89l.18-.06c-.24-5.07-.37-10.57-.37-16.5v-18.45c0-.45.22-.67.67-.67h3.77c.45,0,.67.22.67.67v42.19c0,.45-.22.67-.67.67h-4.26c-.41,0-.69-.14-.85-.43l-16.01-25.39c-2.03-3.29-3.8-6.37-5.3-9.25l-.12.06c.24,6.41.37,11.71.37,15.89v18.45c0,.45-.24.67-.73.67Z"/>
    <path class="cls-1" d="M327.29,279.08c0,4.14-1.5,7.25-4.5,9.34-3,2.09-6.82,3.14-11.44,3.14-2.92,0-5.57-.47-7.94-1.4-2.37-.93-4.8-2.39-7.27-4.38-.33-.28-.37-.61-.12-.97l2.07-2.86c.28-.41.59-.47.91-.18,4.22,3.21,8.4,4.83,12.54,4.87,3,0,5.51-.63,7.52-1.89,2.01-1.26,3.01-3.1,3.01-5.54s-.91-4.09-2.74-5.2c-1.83-1.12-4.71-2.1-8.64-2.95-2.03-.45-3.84-.97-5.42-1.58-1.58-.61-3.1-1.4-4.57-2.37-1.46-.97-2.59-2.21-3.38-3.71-.79-1.5-1.19-3.23-1.19-5.17,0-3.81,1.46-6.69,4.38-8.61,2.92-1.93,6.64-2.89,11.14-2.89,4.95,0,9.68,1.62,14.18,4.87.41.24.47.55.18.91l-2.01,2.86c-.24.37-.57.41-.97.12-3.65-2.52-7.59-3.84-11.81-3.96-2.96,0-5.35.6-7.15,1.8-1.81,1.2-2.71,2.87-2.71,5.02s.87,3.77,2.62,4.87c1.74,1.1,4.42,2.05,8.04,2.86,1.83.41,3.4.81,4.72,1.22,1.32.41,2.69.96,4.11,1.67,1.42.71,2.57,1.49,3.44,2.34.87.85,1.59,1.95,2.16,3.29.57,1.34.85,2.84.85,4.5Z"/>
    <path class="cls-1" d="M340.5,271.16v14.98h20.94c.45,0,.67.22.67.67v3.41c0,.45-.22.67-.67.67h-25.45c-.49,0-.73-.22-.73-.67v-42.19c0-.45.24-.67.73-.67h24.59c.45,0,.67.22.67.67v3.41c0,.45-.22.67-.67.67h-20.09v14.24h18.69c.45,0,.67.24.67.73v3.35c0,.49-.22.73-.67.73h-18.69Z"/>
    <path class="cls-1" d="M399.98,285.41c-3.98,4.1-9.03,6.15-15.16,6.15-4.71,0-8.6-1.32-11.69-3.96-3.08-2.64-4.63-6.35-4.63-11.14v-14.73c0-4.79,1.5-8.49,4.5-11.11,3-2.62,6.8-3.93,11.38-3.93,5.44,0,10.25,1.44,14.43,4.32.45.24.51.57.18.97l-2.07,2.86c-.2.33-.51.39-.91.18-3.49-2.31-7.37-3.47-11.63-3.47-3.29,0-5.9.9-7.82,2.71-1.93,1.81-2.89,4.33-2.89,7.58v14.61c0,3.25,1.01,5.75,3.04,7.52,2.03,1.77,4.73,2.65,8.1,2.65,4.18,0,7.61-1.14,10.29-3.41v-11.32h-9.98c-.45,0-.67-.22-.67-.67v-3.41c0-.45.22-.67.67-.67h14.43c.45,0,.67.22.67.67v16.8c0,.37-.08.63-.24.79Z"/>
    <path class="cls-1" d="M440.89,276.03c0,4.67-1.45,8.42-4.35,11.26-2.9,2.84-6.79,4.26-11.66,4.26s-8.7-1.42-11.6-4.26c-2.9-2.84-4.35-6.59-4.35-11.26v-28c0-.45.24-.67.73-.67h3.9c.45,0,.67.22.67.67v27.64c0,3.45.93,6.16,2.8,8.13,1.87,1.97,4.48,2.95,7.85,2.95s6.05-.98,7.91-2.95c1.87-1.97,2.8-4.68,2.8-8.13v-27.64c0-.45.22-.67.67-.67h3.9c.49,0,.73.22.73.67v28Z"/>
    <path class="cls-1" d="M481.61,290.89h-4.75c-.41,0-.69-.14-.85-.43l-12.11-16.56h-7.37v16.31c0,.45-.22.67-.67.67h-3.77c-.49,0-.73-.22-.73-.67v-42.19c0-.45.24-.67.73-.67h13.7c4.79,0,8.54,1.18,11.26,3.53,2.72,2.35,4.08,5.62,4.08,9.8,0,3.45-1,6.29-3.01,8.52-2.01,2.23-4.82,3.65-8.43,4.26l12.36,16.56c.16.24.2.45.12.61-.08.16-.26.24-.55.24ZM465.84,252.11h-9.31v17.11h9.31c6.66,0,9.98-2.84,9.98-8.52s-3.33-8.58-9.98-8.58Z"/>
    <path class="cls-1" d="M494.94,248.03v42.19c0,.45-.22.67-.67.67h-3.77c-.49,0-.73-.22-.73-.67v-42.19c0-.45.24-.67.73-.67h3.77c.45,0,.67.22.67.67Z"/>
    <path class="cls-1" d="M521.36,290.89h-14.85c-.49,0-.73-.22-.73-.67v-42.19c0-.45.24-.67.73-.67h14.85c4.95,0,8.83,1.37,11.63,4.11,2.8,2.74,4.2,6.59,4.2,11.54v12.48c0,4.91-1.4,8.71-4.2,11.38-2.8,2.68-6.68,4.02-11.63,4.02ZM511.01,252.11v33.91h10.29c3.41,0,6.02-.88,7.82-2.65,1.81-1.77,2.71-4.39,2.71-7.88v-12.48c0-3.57-.9-6.28-2.71-8.13-1.81-1.85-4.41-2.77-7.82-2.77h-10.29Z"/>
    <path class="cls-1" d="M545.83,290.89h-4.08c-.49,0-.67-.26-.55-.79l15.16-42.19c.12-.37.37-.55.73-.55h4.81c.41,0,.67.18.79.55l15.1,42.19c.2.53.02.79-.55.79h-4.08c-.41,0-.67-.18-.79-.55l-3.71-10.84h-18.26l-3.77,10.84c-.12.37-.39.55-.79.55ZM559.41,253.14l-7.43,21.55h15.1l-7.43-21.55h-.24Z"/>
    <path class="cls-1" d="M599.34,290.89h-14.85c-.49,0-.73-.22-.73-.67v-42.19c0-.45.24-.67.73-.67h14.85c4.95,0,8.83,1.37,11.63,4.11,2.8,2.74,4.2,6.59,4.2,11.54v12.48c0,4.91-1.4,8.71-4.2,11.38-2.8,2.68-6.68,4.02-11.63,4.02ZM588.99,252.11v33.91h10.29c3.41,0,6.02-.88,7.82-2.65,1.81-1.77,2.71-4.39,2.71-7.88v-12.48c0-3.57-.9-6.28-2.71-8.13-1.81-1.85-4.41-2.77-7.82-2.77h-10.29Z"/>
    <path class="cls-1" d="M643.41,248.03v42.19c0,.45-.22.67-.67.67h-3.77c-.49,0-.73-.22-.73-.67v-42.19c0-.45.24-.67.73-.67h3.77c.45,0,.67.22.67.67Z"/>
    <path class="cls-1" d="M658.69,290.89h-3.71c-.49,0-.73-.22-.73-.67v-42.19c0-.45.24-.67.73-.67h4.26c.37,0,.65.16.85.49l16.13,26.3c2.76,4.67,4.46,7.63,5.11,8.89l.18-.06c-.24-5.07-.37-10.57-.37-16.5v-18.45c0-.45.22-.67.67-.67h3.77c.45,0,.67.22.67.67v42.19c0,.45-.22.67-.67.67h-4.26c-.41,0-.69-.14-.85-.43l-16.01-25.39c-2.03-3.29-3.8-6.37-5.3-9.25l-.12.06c.24,6.41.37,11.71.37,15.89v18.45c0,.45-.24.67-.73.67Z"/>
    <path class="cls-1" d="M712.69,290.89h-14.85c-.49,0-.73-.22-.73-.67v-42.19c0-.45.24-.67.73-.67h14.85c4.95,0,8.83,1.37,11.63,4.11,2.8,2.74,4.2,6.59,4.2,11.54v12.48c0,4.91-1.4,8.71-4.2,11.38-2.8,2.68-6.68,4.02-11.63,4.02ZM702.34,252.11v33.91h10.29c3.41,0,6.02-.88,7.82-2.65,1.81-1.77,2.71-4.39,2.71-7.88v-12.48c0-3.57-.9-6.28-2.71-8.13-1.81-1.85-4.41-2.77-7.82-2.77h-10.29Z"/>
    <path class="cls-1" d="M769.49,276.03c0,4.67-1.45,8.42-4.35,11.26-2.9,2.84-6.79,4.26-11.66,4.26s-8.7-1.42-11.6-4.26c-2.9-2.84-4.35-6.59-4.35-11.26v-28c0-.45.24-.67.73-.67h3.9c.45,0,.67.22.67.67v27.64c0,3.45.93,6.16,2.8,8.13,1.87,1.97,4.48,2.95,7.85,2.95s6.05-.98,7.91-2.95c1.87-1.97,2.8-4.68,2.8-8.13v-27.64c0-.45.22-.67.67-.67h3.9c.49,0,.73.22.73.67v28Z"/>
    <path class="cls-1" d="M808.87,279.08c0,4.14-1.5,7.25-4.5,9.34-3,2.09-6.82,3.14-11.44,3.14-2.92,0-5.57-.47-7.94-1.4-2.37-.93-4.8-2.39-7.27-4.38-.33-.28-.37-.61-.12-.97l2.07-2.86c.28-.41.59-.47.91-.18,4.22,3.21,8.4,4.83,12.54,4.87,3,0,5.51-.63,7.52-1.89,2.01-1.26,3.01-3.1,3.01-5.54s-.91-4.09-2.74-5.2c-1.83-1.12-4.71-2.1-8.64-2.95-2.03-.45-3.84-.97-5.42-1.58-1.58-.61-3.1-1.4-4.57-2.37-1.46-.97-2.59-2.21-3.38-3.71-.79-1.5-1.19-3.23-1.19-5.17,0-3.81,1.46-6.69,4.38-8.61,2.92-1.93,6.64-2.89,11.14-2.89,4.95,0,9.68,1.62,14.18,4.87.41.24.47.55.18.91l-2.01,2.86c-.24.37-.57.41-.97.12-3.65-2.52-7.59-3.84-11.81-3.96-2.96,0-5.35.6-7.15,1.8-1.81,1.2-2.71,2.87-2.71,5.02s.87,3.77,2.62,4.87c1.74,1.1,4.42,2.05,8.04,2.86,1.83.41,3.4.81,4.72,1.22,1.32.41,2.69.96,4.11,1.67,1.42.71,2.57,1.49,3.44,2.34.87.85,1.59,1.95,2.16,3.29.57,1.34.85,2.84.85,4.5Z"/>
    <path class="cls-1" d="M812.46,247.36h31.29c.49,0,.73.22.73.67v3.41c0,.45-.24.67-.73.67h-13.03v38.11c0,.45-.24.67-.73.67h-3.77c-.49,0-.73-.22-.73-.67v-38.11h-13.03c-.45,0-.67-.22-.67-.67v-3.41c0-.45.22-.67.67-.67Z"/>
    <path class="cls-1" d="M880.89,290.89h-4.75c-.41,0-.69-.14-.85-.43l-12.11-16.56h-7.37v16.31c0,.45-.22.67-.67.67h-3.77c-.49,0-.73-.22-.73-.67v-42.19c0-.45.24-.67.73-.67h13.7c4.79,0,8.54,1.18,11.26,3.53,2.72,2.35,4.08,5.62,4.08,9.8,0,3.45-1,6.29-3.01,8.52-2.01,2.23-4.82,3.65-8.43,4.26l12.36,16.56c.16.24.2.45.12.61-.08.16-.26.24-.55.24ZM865.12,252.11h-9.31v17.11h9.31c6.66,0,9.98-2.84,9.98-8.52s-3.33-8.58-9.98-8.58Z"/>
    <path class="cls-1" d="M894.22,248.03v42.19c0,.45-.22.67-.67.67h-3.77c-.49,0-.73-.22-.73-.67v-42.19c0-.45.24-.67.73-.67h3.77c.45,0,.67.22.67.67Z"/>
    <path class="cls-1" d="M904.81,290.89h-4.08c-.49,0-.67-.26-.55-.79l15.16-42.19c.12-.37.37-.55.73-.55h4.81c.41,0,.67.18.79.55l15.1,42.19c.2.53.02.79-.55.79h-4.08c-.41,0-.67-.18-.79-.55l-3.71-10.84h-18.26l-3.77,10.84c-.12.37-.39.55-.79.55ZM918.38,253.14l-7.43,21.55h15.1l-7.43-21.55h-.24Z"/>
    <path class="cls-1" d="M967.08,290.89h-23.62c-.49,0-.73-.22-.73-.67v-42.19c0-.45.24-.67.73-.67h3.84c.45,0,.67.22.67.67v38.11h19.11c.45,0,.67.22.67.67v3.41c0,.45-.22.67-.67.67Z"/>
  </g>
</svg>